<?xml version="1.0" encoding="utf-8"?>
<!-- Generator: Adobe Illustrator 21.1.0, SVG Export Plug-In . SVG Version: 6.00 Build 0)  -->
<svg version="1.1" xmlns="http://www.w3.org/2000/svg" xmlns:xlink="http://www.w3.org/1999/xlink" x="0px" y="0px"
	 viewBox="0 0 799.9 799.9" style="enable-background:new 0 0 799.9 799.9;" xml:space="preserve">
<style type="text/css">
	.st0{display:none;}
	.st1{display:inline;fill-rule:evenodd;clip-rule:evenodd;fill:#CCCCCC;}
	.st2{display:inline;}
	.st3{fill-rule:evenodd;clip-rule:evenodd;fill:#E4DDD7;}
	.st4{fill-rule:evenodd;clip-rule:evenodd;fill:#FFFFFF;}
	.st5{fill:#FFFFFF;}
	.st6{fill-rule:evenodd;clip-rule:evenodd;fill:#C3E691;}
	.st7{fill-rule:evenodd;clip-rule:evenodd;fill:#D4CBBA;}
	.st8{fill-rule:evenodd;clip-rule:evenodd;fill:#BCB6B1;}
	.st9{fill-rule:evenodd;clip-rule:evenodd;fill:#D2D2D2;}
	.st10{display:inline;fill-rule:evenodd;clip-rule:evenodd;fill:#DF314A;}
	.st11{display:inline;fill-rule:evenodd;clip-rule:evenodd;fill:#FFFFFF;}
	.st12{display:inline;fill:#238C87;}
	.st13{display:inline;fill:#683B1C;}
	.st14{fill:#9BD4D1;}
	.st15{fill-rule:evenodd;clip-rule:evenodd;fill:#6E6762;}
	.st16{fill-rule:evenodd;clip-rule:evenodd;fill:#DF314A;}
	.st17{fill:#238C87;}
	.st18{fill:#683B1C;}
</style>
<g id="Capa_1" class="st0">
	<rect y="0" class="st1" width="799.9" height="799.9"/>
	<g class="st2">
		<rect y="0" class="st3" width="799.9" height="799.9"/>
		<g>
			<polygon class="st4" points="683,0 534.7,372 560.5,382.9 713.1,0 			"/>
			<path class="st5" d="M585.9,353.8c8,41.2,23.8,115.4,73.4,194.8c31.2,49.9,75.9,102,140.7,149.5v36.8
				c-77.8-53.3-130.2-113.1-166-170.3c-52.6-84-69.1-161.9-77.5-205.1L585.9,353.8z"/>
			<polygon class="st4" points="799.9,138.5 0,783.5 0,799.9 24.2,799.9 799.9,174.4 			"/>
			<rect x="534.6" y="0" class="st4" width="28" height="799.9"/>
			<rect x="0" y="345.1" class="st4" width="799.9" height="28"/>
			<ellipse class="st4" cx="548.5" cy="359.1" rx="82.4" ry="82.7"/>
			<ellipse class="st6" cx="548.5" cy="359.1" rx="55.5" ry="55.7"/>
			<polygon class="st4" points="376.7,515.7 392.4,492.5 69.6,349.9 53.9,373.2 			"/>
			<polygon class="st4" points="88.6,752.7 104.3,729.5 0,663.3 0,696.5 			"/>
			<polygon class="st4" points="548.4,228.9 549.2,200.9 0,91.1 0,119.3 			"/>
			<polygon class="st4" points="0,319.1 155.2,146.2 144.6,120.2 0,281.4 			"/>
			<polygon class="st4" points="49.9,254.6 69.8,229.7 0,215.2 0,244.2 			"/>
			<polygon class="st4" points="0,6.1 4.5,0 0,0 			"/>
			<polygon class="st4" points="0,304.4 5.9,297 0,295.7 			"/>
			<polygon class="st4" points="230,149.7 253.4,162.9 399.5,0 364.4,0 			"/>
			<polygon class="st4" points="216.5,353.9 240.8,367.9 258.2,156.7 233.9,142.8 			"/>
			<polygon class="st4" points="254.4,250 252,218.7 54,218.7 24.4,250 			"/>
			<polygon class="st4" points="554.5,258.4 557.9,226.7 236.5,218.3 233,250 			"/>
			<polygon class="st4" points="305,364.9 335.8,359.3 334.7,241.8 303.9,250.8 			"/>
			<polygon class="st4" points="404.1,361.7 434.8,356.1 433.8,238.6 403,247.6 			"/>
			<polygon class="st4" points="308.7,87.9 328.7,63 0,7.6 0,35.8 			"/>
			<polygon class="st4" points="190,47.9 219.4,58.5 252.4,0 217,0 			"/>
			<polygon class="st4" points="554.9,645.9 553.7,617.9 271.5,577.5 272.7,605.5 			"/>
			<polygon class="st4" points="558.1,748.5 556.9,720.5 159.6,667.2 160.8,695.3 			"/>
			<polygon class="st4" points="234.3,695.9 269.6,706.3 380,606.5 344.7,596.1 			"/>
			<polygon class="st4" points="646.6,569.8 675.5,583.1 799.9,372.1 799.9,365.9 773.9,353.9 			"/>
			<polygon class="st4" points="684.5,799.9 667.1,562 636.3,564.9 653.7,799.9 			"/>
			<polygon class="st4" points="670,748.5 668.8,720.5 549.5,724.9 550.7,753 			"/>
			<polygon class="st4" points="660.4,589.3 659.2,550.3 543.1,606.4 544.3,645.4 			"/>
			<polygon class="st4" points="246.6,799.9 274.5,703.6 246.7,691.5 215.3,799.9 			"/>
			<polygon class="st4" points="553.6,517.5 561,486.7 364,486.6 360,517.6 			"/>
			<polygon class="st4" points="663.6,82.1 665.2,113.4 799.9,123.7 799.9,95.2 			"/>
			<polygon class="st4" points="726.5,96.5 761.8,106.9 799.9,28.6 799.9,0 773.5,0 			"/>
			<polygon class="st4" points="612.4,194.3 614,225.6 730.3,220.2 754.2,194.8 			"/>
			<polygon class="st6" points="272.4,599.8 325.9,613.1 252.3,679.6 184.6,670.6 			"/>
			<polygon class="st6" points="62.1,250 0,319.1 0,345.1 217.3,345.1 225.2,248.4 			"/>
			<polygon class="st7" points="334.8,252.7 335.6,345.1 403.9,345.1 403,254.5 			"/>
			<polygon class="st7" points="713.1,0 679.8,83.6 730.3,88.5 773.5,0 			"/>
			<polygon class="st7" points="123.4,143.9 87.6,183.8 0,165.7 0,162.2 27.6,124.8 			"/>
			<polygon class="st4" points="799.9,480 733.5,441.1 720,465.6 799.9,512.4 			"/>
			<polygon class="st4" points="740.2,679.6 763.5,695 799.9,625.9 799.9,566.1 			"/>
			<polygon class="st4" points="799.9,596.5 793.4,606.6 799.9,611.1 			"/>
			<path class="st6" d="M799.9,625.9l-27,51.3c0,0,10.9,9.1,20.4,16.1c2.1,1.6,4.4,3.2,6.6,4.9V625.9z"/>
			<polygon class="st7" points="269.4,144.9 332.4,74.8 446.2,96.6 403.5,171.7 			"/>
			<polygon class="st7" points="534.2,226.1 253.1,218.7 257,170.7 			"/>
		</g>
	</g>
	<g class="st2">
		<path class="st8" d="M501.2,531.6c-57.8,0-117.5,17.9-133.3,40c-13.7,19.1,9.7,35,53.5,39.1c5.6,0.5,4,2.2,3,4.6L400,672.8
			l57.2-56.7c2.3-2.3,4-4.9,10-5.4c49.7-4,96.2-20,109.9-39.1C593,549.5,559,531.6,501.2,531.6z"/>
		<g>
			<path class="st9" d="M562.5,584.4v-43.1c-7.4-3.2-16.8-5.7-28-7.4v63.3C545.4,593.5,555,589.1,562.5,584.4z"/>
			<path class="st9" d="M487.5,608.4l-120.4-17.2c7.3,9.8,26.8,17,54.2,19.5c5.6,0.5,4,2.2,3,4.6l-4.8,11.3l23.6,3.4l14-13.8
				c2.3-2.3,4-4.9,10-5.4C474,610.2,480.9,609.4,487.5,608.4z"/>
		</g>
	</g>
	<path class="st10" d="M400,173.1c-78.2,0-141.7,63.4-141.7,141.7c0,67.5,47.2,124,110.4,138.2c8.1,1.8,7.5,7.8,8.5,16.2L400,672.8
		l22.5-200.6c0.9-8.2,0.6-17.3,8.3-19c63.5-14,110.9-70.6,110.9-138.3C541.6,236.6,478.2,173.1,400,173.1z"/>
	<path class="st11" d="M400,439.3c68.6,0,124.5-55.9,124.5-124.5c0-68.6-55.9-124.5-124.5-124.5c-68.6,0-124.5,55.9-124.5,124.5
		C275.4,383.4,331.4,439.3,400,439.3z"/>
	<polygon class="st11" points="0,630.6 0,663.7 289.4,467.7 278.9,441.8 	"/>
	<polygon class="st12" points="318.8,301.1 314.2,301.1 314.2,288.5 308.6,266.8 313.1,266.8 316.6,281.7 316.7,281.7 319.8,266.8 
		324.4,266.8 318.8,288.5 	"/>
	<path class="st12" d="M334,266.8h2.2c3.7,0,5.5,2,5.5,5.9v22.6c0,3.9-1.9,5.8-5.6,5.8H334V297h1.3c1.2,0,1.8-0.7,1.8-2v-22
		c0-1.3-0.7-2-2.1-2H334V266.8z M331.9,301.1c-3.7,0-5.6-1.9-5.6-5.8v-22.6c0-3.9,1.8-5.9,5.5-5.9h2.2v4.2h-1.1c-1.3,0-2,0.7-2,2v22
		c0,1.3,0.7,2,2.1,2h1.1v4.2H331.9z"/>
	<path class="st12" d="M360.7,266.8v27.9c0,4.3-1.9,6.5-5.6,6.5h-3.9c-3.7,0-5.5-2.2-5.5-6.6v-27.8h4.6v28c0,1.5,0.7,2.3,2,2.3h1.9
		c1.2,0,1.9-0.8,1.9-2.3v-28H360.7z"/>
	<path class="st12" d="M372.2,266.8h1.9c3.5,0,5.3,2,5.3,5.9v8.5c0,3-0.9,4.9-2.7,5.7l3.2,14.3h-4.4l-3-13.9h-0.2v-3.9h0.5
		c1.4,0,2.1-0.8,2.1-2.5v-7.4c0-1.7-0.7-2.5-2.1-2.5h-0.5V266.8z M365,266.8h7.1v4.2h-2.5v12.4h2.5v3.9h-2.5v13.9H365V266.8z"/>
	<path class="st12" d="M399.6,276v-3c0-1.4-0.7-2.1-2-2.1h-0.7c-1.3,0-2,0.7-2,2.1v5.7c0,0.6,0.1,1.1,0.4,1.3
		c0.3,0.2,0.7,0.5,1.2,0.9l4.4,2.3c1,0.5,1.6,1,2,1.3c0.4,0.3,0.7,0.7,0.9,1.1c0.2,0.4,0.3,1.3,0.3,2.5v7.3c0,3.9-1.9,5.8-5.6,5.8
		h-2.8c-3.7,0-5.5-2.1-5.5-6.3v-1.7h4.6v1.9c0,1.3,0.7,2,2.1,2h0.8c1.2,0,1.8-0.7,1.8-2v-5.8c0-0.6-0.1-1.1-0.4-1.3
		c-0.3-0.2-0.7-0.5-1.2-0.9l-4.4-2.4c-1-0.5-1.7-0.9-2.1-1.3c-0.4-0.4-0.7-0.8-0.9-1.4c-0.2-0.6-0.3-1.3-0.3-2.2v-7
		c0-3.9,1.8-5.9,5.5-5.9h2.9c3.7,0,5.5,2,5.5,5.9v3.4H399.6z"/>
	<path class="st12" d="M415,266.8h1.7c3.7,0,5.5,2,5.5,5.9v28.5h-4.6v-12.6H415v-4.2h2.6v-11.4c0-1.3-0.7-2-2-2H415V266.8z
		 M412.4,301.1h-4.6v-28.5c0-3.9,1.8-5.9,5.5-5.9h1.7v4.2h-0.6c-1.3,0-2,0.7-2,2v11.4h2.6v4.2h-2.6V301.1z"/>
	<polygon class="st12" points="435.7,287 439.9,266.8 445,266.8 445,301.1 440.4,301.1 440.9,278.6 437.4,294.9 433.9,294.9 
		430.4,278.6 430.9,301.1 426.3,301.1 426.3,266.8 431.4,266.8 	"/>
	<path class="st12" d="M456.3,266.8h1.4c3.7,0,5.6,2,5.6,5.9v10.2c0,3.9-1.8,5.8-5.5,5.8h-1.5v-4.2h0.6c1.2,0,1.8-0.7,1.8-2v-9.6
		c0-1.3-0.7-2-2.1-2h-0.3V266.8z M449.3,266.8h7v4.2h-2.4v13.6h2.4v4.2h-2.4v12.4h-4.6V266.8z"/>
	<polygon class="st12" points="477.8,301.1 466.9,301.1 466.9,266.8 471.5,266.8 471.5,297 477.8,297 	"/>
	<polygon class="st12" points="480.4,301.1 480.4,266.8 491.8,266.8 491.8,270.9 485,270.9 485,281.4 491,281.4 491,285.5 
		485,285.5 485,297 491.8,297 491.8,301.1 	"/>
	<polygon class="st13" points="321.3,321 321.3,362.9 314.9,362.9 314.9,321 308.8,321 308.8,315.2 327.4,315.2 327.4,321 	"/>
	<polygon class="st13" points="331,362.9 331,315.2 346.8,315.2 346.8,321 337.4,321 337.4,335.5 345.8,335.5 345.8,341.3 
		337.4,341.3 337.4,357.1 346.8,357.1 346.8,362.9 	"/>
	<polygon class="st13" points="369.4,362.9 363.3,362.9 359.7,344.8 359.6,344.8 355.2,362.9 349.3,362.9 355.4,338.8 349.7,315.2 
		356,315.2 359.6,332.8 359.7,332.8 363.7,315.2 369.6,315.2 363.9,338.8 	"/>
	<polygon class="st13" points="383.6,321 383.6,362.9 377.3,362.9 377.3,321 371.2,321 371.2,315.2 389.7,315.2 389.7,321 	"/>
	<polygon class="st13" points="418.2,362.9 418.2,341.3 410.4,341.3 410.4,362.9 404,362.9 404,315.2 410.4,315.2 410.4,335.5 
		418.2,335.5 418.2,315.2 424.6,315.2 424.6,362.9 	"/>
	<polygon class="st13" points="430.5,362.9 430.5,315.2 446.3,315.2 446.3,321 436.9,321 436.9,335.5 445.3,335.5 445.3,341.3 
		436.9,341.3 436.9,357.1 446.3,357.1 446.3,362.9 	"/>
	<path class="st13" d="M460.8,315.2h2.6c4.9,0,7.3,2.7,7.3,8.2v11.7c0,4.2-1.3,6.8-3.8,7.9l4.4,19.8h-6l-4.2-19.2h-0.3v-5.4h0.7
		c1.9,0,2.9-1.1,2.9-3.4v-10.3c0-2.3-1-3.4-2.9-3.4h-0.7V315.2z M450.9,315.2h9.9v5.8h-3.5v17.2h3.5v5.4h-3.5v19.2h-6.4V315.2z"/>
	<polygon class="st13" points="476,362.9 476,315.2 491.8,315.2 491.8,321 482.4,321 482.4,335.5 490.7,335.5 490.7,341.3 
		482.4,341.3 482.4,357.1 491.8,357.1 491.8,362.9 	"/>
	<g class="st2">
		<path class="st4" d="M242.8,643.6c15.2,29.1,32.2,57.4,45.5,87.2c10.2,22.8,19.2,45.9,27.2,69.2h-160c2-6.8,3.8-13.5,5.3-20.2
			c7.1-30.8,12.2-75.2-0.7-109.1C119.3,604.2,67.7,545.1,6.6,495.5L0,386.9c91.1,61.6,167.6,139.7,226.7,230.6l3.9-0.9l12,26.5
			C242.7,643.3,242.7,643.4,242.8,643.6z"/>
		<path class="st14" d="M216.2,650.7c0.2,0.4,0.4,0.8,0.5,1.2c17,28.2,32,57.1,45,86.3c9.1,20.5,17.3,41.1,24.5,61.8h-34.7
			c-5.9-16.6-12.4-33.2-19.6-49.6c-1,16.6-3.3,33.3-6.8,49.6h-38c0.8-3.1,1.6-6.1,2.3-9.2c10.4-45,11.7-92.3-3.4-128.8
			C140.9,587.8,80.9,518.6,4.4,460.4l-2.4-40c91.5,65.1,162.1,144.7,214,230.3L216.2,650.7z"/>
	</g>
	<g class="st2">
		<path class="st15" d="M285.8,775c0.4,0,0.8-0.1,1.1-0.3c0.3-0.2,0.6-0.5,0.8-1c0.2-0.4,0.3-1,0.3-1.6c0-0.6-0.1-1.2-0.3-1.6
			c-0.2-0.4-0.5-0.8-0.8-1c-0.3-0.2-0.7-0.3-1.1-0.4v-1.7c0.4,0.1,0.7,0.2,1,0.3c0.5,0.2,0.9,0.6,1.3,1.1v-3.4
			c0-0.5,0.1-0.8,0.3-1.1c0.2-0.2,0.5-0.4,0.8-0.4c0.4,0,0.6,0.1,0.8,0.3c0.2,0.2,0.3,0.6,0.3,1v10.2c0,0.4-0.1,0.8-0.3,1
			c-0.2,0.2-0.5,0.3-0.8,0.3c-0.3,0-0.6-0.1-0.8-0.3c-0.2-0.2-0.3-0.6-0.3-1v-0.2c-0.3,0.4-0.6,0.6-0.9,0.9c-0.3,0.2-0.6,0.4-1,0.5
			c-0.1,0-0.3,0.1-0.4,0.1V775z M283.5,772c0,0.6,0.1,1.2,0.3,1.6c0.2,0.4,0.5,0.8,0.8,1c0.3,0.2,0.7,0.3,1.1,0.3h0v1.7
			c-0.2,0-0.5,0.1-0.7,0.1c-0.6,0-1.1-0.1-1.5-0.4c-0.5-0.2-0.9-0.6-1.2-1c-0.3-0.4-0.6-0.9-0.8-1.5c-0.2-0.6-0.3-1.2-0.3-1.9
			c0-1.5,0.4-2.6,1.1-3.4c0.7-0.8,1.6-1.2,2.8-1.2c0.2,0,0.5,0,0.7,0v1.7h0c-0.4,0-0.8,0.1-1.1,0.4c-0.3,0.2-0.6,0.6-0.8,1
			C283.6,770.9,283.5,771.4,283.5,772z"/>
		<path class="st15" d="M296.7,771.3h2.1c-0.1-0.8-0.3-1.4-0.6-1.8c-0.4-0.4-0.9-0.6-1.5-0.6v-1.6h0.1c0.9,0,1.7,0.2,2.3,0.6
			c0.7,0.4,1.1,0.9,1.5,1.5c0.3,0.6,0.5,1.2,0.5,1.9c0,0.6-0.2,1-0.5,1.1c-0.3,0.2-0.8,0.3-1.4,0.3h-2.4V771.3L296.7,771.3z
			 M296.7,776.8v-1.5c0.1,0,0.1,0,0.2,0c0.3,0,0.5,0,0.8-0.1c0.2-0.1,0.4-0.2,0.7-0.3c0.2-0.1,0.4-0.3,0.6-0.4
			c0.2-0.2,0.4-0.4,0.7-0.6c0.1-0.1,0.3-0.2,0.5-0.2c0.2,0,0.4,0.1,0.6,0.2c0.1,0.1,0.2,0.3,0.2,0.6c0,0.2-0.1,0.5-0.2,0.7
			c-0.2,0.3-0.4,0.6-0.7,0.8c-0.3,0.3-0.7,0.5-1.3,0.6c-0.5,0.2-1.1,0.3-1.7,0.3C296.8,776.8,296.8,776.8,296.7,776.8z M294.6,771.3
			h2.1v1.3h-2.1c0,0.5,0.1,1,0.3,1.4c0.2,0.4,0.5,0.7,0.8,0.9c0.3,0.2,0.6,0.3,1,0.3v1.5c-1.4,0-2.5-0.5-3.2-1.3
			c-0.8-0.8-1.2-2-1.2-3.5c0-0.7,0.1-1.3,0.3-1.9c0.2-0.6,0.5-1.1,0.9-1.5c0.4-0.4,0.9-0.7,1.4-1c0.6-0.2,1.2-0.3,1.8-0.3v1.6h0
			c-0.6,0-1.1,0.2-1.4,0.6C294.9,769.9,294.7,770.5,294.6,771.3z"/>
		<path class="st15" d="M310.5,773.7c0,0.6-0.2,1.2-0.5,1.6c-0.3,0.5-0.8,0.8-1.4,1c-0.6,0.2-1.4,0.4-2.2,0.4
			c-0.8,0-1.5-0.1-2.1-0.4c-0.6-0.3-1-0.6-1.3-1c-0.3-0.4-0.4-0.8-0.4-1.2c0-0.3,0.1-0.5,0.3-0.7c0.2-0.2,0.4-0.3,0.7-0.3
			c0.2,0,0.4,0.1,0.6,0.2c0.1,0.1,0.3,0.3,0.4,0.5c0.2,0.4,0.5,0.7,0.9,0.9c0.3,0.2,0.8,0.3,1.4,0.3c0.5,0,0.8-0.1,1.1-0.3
			c0.3-0.2,0.4-0.4,0.4-0.7c0-0.4-0.2-0.7-0.5-0.9c-0.3-0.2-0.8-0.4-1.5-0.5c-0.8-0.2-1.4-0.4-2-0.6c-0.5-0.2-0.9-0.5-1.2-0.9
			c-0.3-0.4-0.5-0.8-0.5-1.3c0-0.5,0.1-0.9,0.4-1.3c0.3-0.4,0.7-0.7,1.2-1c0.5-0.2,1.2-0.4,2-0.4c0.6,0,1.1,0.1,1.6,0.2
			c0.5,0.1,0.9,0.3,1.2,0.5c0.3,0.2,0.6,0.4,0.7,0.7c0.2,0.3,0.3,0.5,0.3,0.7c0,0.3-0.1,0.5-0.3,0.7c-0.2,0.2-0.4,0.3-0.8,0.3
			c-0.2,0-0.4-0.1-0.6-0.2c-0.2-0.1-0.4-0.3-0.6-0.6c-0.2-0.2-0.4-0.4-0.6-0.5c-0.2-0.1-0.6-0.2-1-0.2c-0.4,0-0.8,0.1-1,0.3
			c-0.3,0.2-0.4,0.4-0.4,0.7c0,0.2,0.1,0.4,0.3,0.6c0.2,0.2,0.5,0.3,0.8,0.4c0.3,0.1,0.8,0.2,1.4,0.4c0.7,0.2,1.3,0.4,1.8,0.6
			c0.5,0.2,0.8,0.5,1,0.9C310.3,772.9,310.5,773.3,310.5,773.7z"/>
		<path class="st15" d="M314.8,768.6v6.7c0,0.5-0.1,0.8-0.3,1.1c-0.2,0.2-0.5,0.4-0.8,0.4c-0.3,0-0.6-0.1-0.8-0.4
			c-0.2-0.2-0.3-0.6-0.3-1v-6.6c0-0.5,0.1-0.8,0.3-1c0.2-0.2,0.5-0.4,0.8-0.4c0.3,0,0.6,0.1,0.8,0.4
			C314.6,767.9,314.8,768.2,314.8,768.6L314.8,768.6z M313.6,766.2c-0.3,0-0.6-0.1-0.8-0.3c-0.2-0.2-0.3-0.5-0.3-0.8
			c0-0.3,0.1-0.6,0.4-0.8c0.2-0.2,0.5-0.3,0.8-0.3c0.3,0,0.6,0.1,0.8,0.3c0.2,0.2,0.3,0.5,0.3,0.8c0,0.4-0.1,0.6-0.3,0.8
			C314.2,766.1,313.9,766.2,313.6,766.2z"/>
		<path class="st15" d="M321.2,774.8c0.4,0,0.7-0.1,1.1-0.3c0.3-0.2,0.6-0.5,0.8-0.9c0.2-0.4,0.3-0.9,0.3-1.5c0-0.9-0.2-1.7-0.6-2.2
			c-0.4-0.5-0.9-0.8-1.6-0.8v-1.7c0.4,0.1,0.7,0.2,1,0.3c0.5,0.3,0.9,0.6,1.3,1.2v-0.3c0-0.4,0.1-0.7,0.3-0.9
			c0.2-0.2,0.5-0.3,0.8-0.3c0.4,0,0.7,0.1,0.9,0.4c0.1,0.3,0.2,0.7,0.2,1.3v6.7c0,0.8-0.1,1.4-0.2,2c-0.2,0.6-0.4,1-0.8,1.4
			c-0.4,0.4-0.8,0.6-1.4,0.8c-0.6,0.2-1.2,0.3-2,0.3v-1.6c0.5,0,0.9-0.1,1.2-0.2c0.3-0.2,0.6-0.4,0.7-0.7c0.1-0.3,0.2-0.6,0.2-1
			c0-0.3,0-0.9,0.1-1.7c-0.4,0.5-0.8,0.9-1.2,1.1c-0.3,0.2-0.6,0.3-1,0.3V774.8z M319,772c0,0.9,0.2,1.7,0.6,2.1
			c0.4,0.5,0.9,0.7,1.6,0.7h0v1.7c-0.2,0-0.5,0.1-0.7,0.1c-0.8,0-1.5-0.2-2-0.6c-0.6-0.4-1-1-1.3-1.7c-0.3-0.7-0.5-1.5-0.5-2.5
			c0-0.7,0.1-1.3,0.3-1.9c0.2-0.6,0.5-1,0.8-1.4c0.4-0.4,0.8-0.7,1.2-0.9c0.5-0.2,1-0.3,1.5-0.3c0.3,0,0.5,0,0.7,0.1v1.7h0
			c-0.7,0-1.2,0.2-1.6,0.8C319.2,770.3,319,771,319,772L319,772z M321.2,778.6v1.6l-0.2,0c-0.8,0-1.5-0.1-2.1-0.3
			c-0.6-0.2-1.1-0.5-1.5-0.9c-0.3-0.4-0.5-0.7-0.5-1.1c0-0.3,0.1-0.5,0.3-0.7c0.2-0.2,0.4-0.3,0.7-0.3c0.3,0,0.6,0.2,0.9,0.5
			c0.1,0.2,0.3,0.3,0.4,0.5c0.1,0.2,0.3,0.3,0.4,0.4c0.2,0.1,0.4,0.2,0.6,0.2c0.2,0.1,0.5,0.1,0.8,0.1
			C321.1,778.6,321.1,778.6,321.2,778.6z"/>
		<path class="st15" d="M330.2,768.6v0.3c0.4-0.5,0.9-0.9,1.3-1.2c0.5-0.3,1-0.4,1.7-0.4c0.6,0,1.2,0.1,1.6,0.4
			c0.5,0.3,0.8,0.6,1.1,1.1c0.2,0.3,0.3,0.6,0.3,0.9c0,0.3,0.1,0.8,0.1,1.3v4.3c0,0.5-0.1,0.8-0.3,1.1c-0.2,0.2-0.5,0.4-0.8,0.4
			c-0.3,0-0.6-0.1-0.8-0.4c-0.2-0.2-0.3-0.6-0.3-1v-3.9c0-0.8-0.1-1.4-0.3-1.8c-0.2-0.4-0.6-0.6-1.3-0.6c-0.4,0-0.8,0.1-1.1,0.4
			c-0.3,0.2-0.6,0.6-0.7,1c-0.1,0.4-0.2,1-0.2,1.9v2.9c0,0.5-0.1,0.8-0.3,1.1c-0.2,0.2-0.5,0.4-0.8,0.4c-0.3,0-0.6-0.1-0.8-0.4
			c-0.2-0.2-0.3-0.6-0.3-1v-6.7c0-0.4,0.1-0.8,0.3-1c0.2-0.2,0.5-0.3,0.8-0.3c0.2,0,0.4,0,0.6,0.1c0.2,0.1,0.3,0.2,0.4,0.4
			C330.1,768.1,330.2,768.3,330.2,768.6z"/>
		<path class="st15" d="M342.6,771.3h2.1c-0.1-0.8-0.3-1.4-0.6-1.8c-0.4-0.4-0.9-0.6-1.5-0.6v-1.6h0.1c0.9,0,1.7,0.2,2.3,0.6
			c0.6,0.4,1.1,0.9,1.5,1.5c0.3,0.6,0.5,1.2,0.5,1.9c0,0.6-0.2,1-0.5,1.1c-0.3,0.2-0.8,0.3-1.4,0.3h-2.4V771.3L342.6,771.3z
			 M342.6,776.8v-1.5c0.1,0,0.1,0,0.2,0c0.3,0,0.5,0,0.8-0.1c0.2-0.1,0.5-0.2,0.7-0.3c0.2-0.1,0.4-0.3,0.6-0.4
			c0.2-0.2,0.4-0.4,0.7-0.6c0.1-0.1,0.3-0.2,0.5-0.2c0.2,0,0.4,0.1,0.6,0.2c0.1,0.1,0.2,0.3,0.2,0.6c0,0.2-0.1,0.5-0.2,0.7
			c-0.2,0.3-0.4,0.6-0.7,0.8c-0.3,0.3-0.7,0.5-1.3,0.6c-0.5,0.2-1.1,0.3-1.7,0.3C342.8,776.8,342.7,776.8,342.6,776.8z M340.5,771.3
			h2.1v1.3h-2.1c0,0.5,0.1,1,0.3,1.4c0.2,0.4,0.5,0.7,0.8,0.9c0.3,0.2,0.6,0.3,1,0.3v1.5c-1.4,0-2.5-0.5-3.2-1.3
			c-0.8-0.8-1.2-2-1.2-3.5c0-0.7,0.1-1.3,0.3-1.9c0.2-0.6,0.5-1.1,0.9-1.5c0.4-0.4,0.9-0.7,1.4-1c0.6-0.2,1.2-0.3,1.8-0.3v1.6h0
			c-0.6,0-1.1,0.2-1.4,0.6C340.8,769.9,340.6,770.5,340.5,771.3z"/>
		<path class="st15" d="M352.9,775c0.4,0,0.8-0.1,1.1-0.3c0.3-0.2,0.6-0.5,0.8-1c0.2-0.4,0.3-1,0.3-1.6c0-0.6-0.1-1.2-0.3-1.6
			c-0.2-0.4-0.5-0.8-0.8-1c-0.3-0.2-0.7-0.3-1.1-0.4v-1.7c0.4,0.1,0.7,0.2,1,0.3c0.5,0.2,0.9,0.6,1.3,1.1v-3.4
			c0-0.5,0.1-0.8,0.3-1.1c0.2-0.2,0.5-0.4,0.8-0.4c0.4,0,0.6,0.1,0.8,0.3c0.2,0.2,0.3,0.6,0.3,1v10.2c0,0.4-0.1,0.8-0.3,1
			c-0.2,0.2-0.5,0.3-0.8,0.3c-0.3,0-0.6-0.1-0.8-0.3c-0.2-0.2-0.3-0.6-0.3-1v-0.2c-0.3,0.4-0.6,0.6-0.9,0.9c-0.3,0.2-0.6,0.4-1,0.5
			c-0.1,0-0.3,0.1-0.4,0.1V775z M350.7,772c0,0.6,0.1,1.2,0.3,1.6c0.2,0.4,0.5,0.8,0.8,1c0.3,0.2,0.7,0.3,1.1,0.3h0v1.7
			c-0.2,0-0.5,0.1-0.7,0.1c-0.6,0-1.1-0.1-1.5-0.4c-0.5-0.2-0.9-0.6-1.2-1c-0.3-0.4-0.6-0.9-0.8-1.5c-0.2-0.6-0.3-1.2-0.3-1.9
			c0-1.5,0.4-2.6,1.1-3.4c0.7-0.8,1.6-1.2,2.8-1.2c0.2,0,0.5,0,0.7,0v1.7h0c-0.4,0-0.8,0.1-1.1,0.4c-0.3,0.2-0.6,0.6-0.8,1
			C350.8,770.9,350.7,771.4,350.7,772z"/>
		<path class="st15" d="M368.6,775L368.6,775c0.7,0,1.2-0.3,1.6-0.8c0.4-0.5,0.6-1.2,0.6-2.2c0-0.6-0.1-1.1-0.3-1.6
			c-0.2-0.4-0.4-0.8-0.7-1c-0.3-0.2-0.7-0.4-1.1-0.4l-0.1,0v-1.7c0.2,0,0.4,0,0.7,0c0.8,0,1.4,0.2,2,0.5c0.6,0.4,1,0.9,1.4,1.6
			c0.3,0.7,0.5,1.5,0.5,2.5c0,0.7-0.1,1.4-0.3,1.9c-0.2,0.6-0.4,1.1-0.8,1.5c-0.3,0.4-0.8,0.8-1.2,1c-0.5,0.2-1,0.4-1.6,0.4
			c-0.2,0-0.5,0-0.7-0.1V775z M366.4,772.1c0,0.9,0.2,1.6,0.6,2.1c0.4,0.5,0.9,0.7,1.6,0.7v1.7c-0.1,0-0.2,0-0.3-0.1
			c-0.3-0.1-0.6-0.2-0.8-0.3c-0.2-0.1-0.4-0.3-0.6-0.4c-0.2-0.1-0.4-0.4-0.6-0.7v0.2c0,0.4-0.1,0.8-0.3,1c-0.2,0.2-0.5,0.3-0.8,0.3
			c-0.3,0-0.6-0.1-0.8-0.3c-0.2-0.2-0.3-0.6-0.3-1l0-10.1c0-0.5,0.1-0.8,0.3-1.1c0.2-0.2,0.5-0.4,0.8-0.4c0.4,0,0.6,0.1,0.8,0.3
			c0.2,0.2,0.3,0.6,0.3,1v3.5c0.4-0.5,0.9-0.8,1.3-1c0.3-0.2,0.6-0.3,1-0.3v1.7c-0.4,0-0.8,0.1-1.1,0.4c-0.3,0.2-0.6,0.6-0.8,1
			C366.5,770.9,366.4,771.5,366.4,772.1z"/>
		<path class="st15" d="M377,777.1l0.2-0.5l-2.9-7.2c-0.2-0.4-0.3-0.7-0.3-0.9c0-0.2,0.1-0.4,0.2-0.6c0.1-0.2,0.2-0.3,0.4-0.4
			c0.2-0.1,0.4-0.2,0.6-0.2c0.3,0,0.6,0.1,0.8,0.3c0.2,0.2,0.3,0.5,0.5,0.9l2,5.7l1.9-5.3c0.1-0.4,0.3-0.8,0.4-1
			c0.1-0.2,0.2-0.4,0.4-0.5c0.1-0.1,0.3-0.1,0.6-0.1c0.2,0,0.3,0,0.5,0.1c0.2,0.1,0.3,0.2,0.4,0.4c0.1,0.2,0.1,0.3,0.1,0.5
			c0,0.1-0.1,0.3-0.1,0.5c-0.1,0.2-0.1,0.4-0.2,0.6l-3,7.9c-0.3,0.7-0.5,1.2-0.8,1.6c-0.2,0.4-0.6,0.7-1,0.9c-0.4,0.2-1,0.3-1.7,0.3
			c-0.7,0-1.2-0.1-1.5-0.2c-0.3-0.1-0.5-0.4-0.5-0.8c0-0.3,0.1-0.5,0.2-0.6c0.2-0.1,0.4-0.2,0.7-0.2c0.1,0,0.2,0,0.4,0.1
			c0.1,0,0.3,0,0.4,0c0.3,0,0.5,0,0.6-0.1c0.2-0.1,0.3-0.2,0.4-0.4C376.7,777.7,376.8,777.4,377,777.1z"/>
		<path class="st15" d="M420,767.5h0.6v-0.7c0-0.7,0.1-1.3,0.3-1.7c0.2-0.4,0.5-0.7,0.9-0.9c0.4-0.2,1-0.3,1.8-0.3c1.4,0,2,0.3,2,1
			c0,0.2-0.1,0.4-0.2,0.6c-0.1,0.2-0.3,0.2-0.5,0.2c-0.1,0-0.2,0-0.5-0.1c-0.2,0-0.4,0-0.6,0c-0.4,0-0.7,0.1-0.8,0.4
			c-0.1,0.2-0.2,0.6-0.2,1.1v0.6h0.6c0.9,0,1.3,0.3,1.3,0.8c0,0.4-0.1,0.6-0.4,0.7c-0.2,0.1-0.6,0.2-1,0.2h-0.6v6.1
			c0,0.5-0.1,0.8-0.3,1.1c-0.2,0.2-0.5,0.4-0.8,0.4c-0.3,0-0.6-0.1-0.8-0.4c-0.2-0.2-0.3-0.6-0.3-1.1v-6.1h-0.6
			c-0.3,0-0.6-0.1-0.8-0.2c-0.2-0.2-0.3-0.4-0.3-0.6C418.8,767.8,419.2,767.5,420,767.5z"/>
		<path class="st15" d="M428.3,773.4v1.9c0,0.5-0.1,0.8-0.3,1.1c-0.2,0.2-0.5,0.4-0.8,0.4c-0.3,0-0.6-0.1-0.8-0.4
			c-0.2-0.2-0.3-0.6-0.3-1.1v-6.5c0-1,0.4-1.6,1.1-1.6c0.4,0,0.7,0.1,0.8,0.4c0.2,0.2,0.3,0.6,0.3,1.1c0.3-0.5,0.6-0.8,0.9-1.1
			c0.3-0.2,0.7-0.4,1.2-0.4c0.5,0,1,0.1,1.4,0.4c0.5,0.2,0.7,0.6,0.7,1c0,0.3-0.1,0.5-0.3,0.7c-0.2,0.2-0.4,0.3-0.6,0.3
			c-0.1,0-0.3-0.1-0.6-0.2c-0.3-0.1-0.6-0.2-0.9-0.2c-0.3,0-0.6,0.1-0.8,0.3c-0.2,0.2-0.4,0.4-0.5,0.8c-0.1,0.4-0.2,0.8-0.2,1.3
			C428.3,772.1,428.3,772.7,428.3,773.4z"/>
		<path class="st15" d="M437.2,771.3h2.1c-0.1-0.8-0.3-1.4-0.6-1.8c-0.4-0.4-0.9-0.6-1.5-0.6v-1.6l0.1,0c0.9,0,1.7,0.2,2.3,0.6
			c0.7,0.4,1.1,0.9,1.5,1.5c0.3,0.6,0.5,1.2,0.5,1.9c0,0.6-0.2,1-0.5,1.1c-0.3,0.2-0.8,0.3-1.4,0.3h-2.4V771.3L437.2,771.3z
			 M437.2,776.8v-1.5c0.1,0,0.1,0,0.2,0c0.3,0,0.5,0,0.8-0.1c0.2-0.1,0.5-0.2,0.7-0.3c0.2-0.1,0.4-0.3,0.6-0.4
			c0.2-0.2,0.4-0.4,0.7-0.6c0.1-0.1,0.3-0.2,0.5-0.2c0.2,0,0.4,0.1,0.6,0.2c0.1,0.1,0.2,0.3,0.2,0.6c0,0.2-0.1,0.5-0.2,0.7
			c-0.2,0.3-0.4,0.6-0.7,0.8c-0.3,0.3-0.8,0.5-1.3,0.6c-0.5,0.2-1.1,0.3-1.7,0.3C437.3,776.8,437.3,776.8,437.2,776.8z M435.1,771.3
			h2.1v1.3h-2.1c0,0.5,0.1,1,0.3,1.4c0.2,0.4,0.5,0.7,0.8,0.9c0.3,0.2,0.6,0.3,1,0.3v1.5c-1.4,0-2.5-0.5-3.2-1.3
			c-0.8-0.8-1.2-2-1.2-3.5c0-0.7,0.1-1.3,0.3-1.9c0.2-0.6,0.5-1.1,0.9-1.5c0.4-0.4,0.9-0.7,1.4-1c0.5-0.2,1.2-0.3,1.8-0.3v1.6h0
			c-0.6,0-1.1,0.2-1.4,0.6C435.4,769.9,435.2,770.5,435.1,771.3z"/>
		<path class="st15" d="M447.5,771.3h2.1c-0.1-0.8-0.3-1.4-0.6-1.8c-0.4-0.4-0.9-0.6-1.5-0.6v-1.6h0.1c0.9,0,1.7,0.2,2.3,0.6
			c0.6,0.4,1.1,0.9,1.5,1.5c0.3,0.6,0.5,1.2,0.5,1.9c0,0.6-0.2,1-0.5,1.1c-0.3,0.2-0.8,0.3-1.4,0.3h-2.4V771.3L447.5,771.3z
			 M447.5,776.8v-1.5c0.1,0,0.1,0,0.2,0c0.3,0,0.5,0,0.8-0.1c0.2-0.1,0.5-0.2,0.7-0.3c0.2-0.1,0.4-0.3,0.6-0.4
			c0.2-0.2,0.4-0.4,0.7-0.6c0.1-0.1,0.3-0.2,0.5-0.2c0.2,0,0.4,0.1,0.6,0.2c0.1,0.1,0.2,0.3,0.2,0.6c0,0.2-0.1,0.5-0.2,0.7
			c-0.2,0.3-0.4,0.6-0.7,0.8c-0.3,0.3-0.7,0.5-1.2,0.6c-0.5,0.2-1.1,0.3-1.7,0.3C447.7,776.8,447.6,776.8,447.5,776.8z M445.4,771.3
			h2.1v1.3h-2.1c0,0.5,0.1,1,0.3,1.4c0.2,0.4,0.5,0.7,0.8,0.9c0.3,0.2,0.6,0.3,1,0.3v1.5c-1.4,0-2.5-0.5-3.2-1.3
			c-0.8-0.8-1.2-2-1.2-3.5c0-0.7,0.1-1.3,0.3-1.9c0.2-0.6,0.5-1.1,0.9-1.5c0.4-0.4,0.9-0.7,1.4-1c0.6-0.2,1.2-0.3,1.8-0.3v1.6h0
			c-0.6,0-1.1,0.2-1.4,0.6C445.7,769.9,445.5,770.5,445.4,771.3z"/>
		<path class="st15" d="M460.3,772c0-0.6-0.1-1.1-0.3-1.6c-0.2-0.4-0.4-0.8-0.8-1c-0.3-0.2-0.7-0.4-1.1-0.4l-0.1,0v-1.7
			c0.2,0,0.4-0.1,0.6-0.1c0.7,0,1.4,0.2,2,0.6c0.6,0.4,1.1,0.9,1.4,1.6c0.3,0.7,0.5,1.5,0.5,2.5c0,0.7-0.1,1.4-0.3,2
			c-0.2,0.6-0.5,1.1-0.8,1.5c-0.4,0.4-0.8,0.7-1.2,0.9c-0.5,0.2-1,0.3-1.5,0.3c-0.2,0-0.4,0-0.6,0V775l0.1,0c0.4,0,0.7-0.1,1.1-0.3
			c0.3-0.2,0.6-0.6,0.8-1C460.2,773.2,460.3,772.6,460.3,772z M458.1,769.1c-0.6,0-1.1,0.3-1.6,0.8c-0.4,0.5-0.7,1.2-0.7,2.2
			c0,0.9,0.2,1.6,0.7,2.2c0.4,0.5,0.9,0.8,1.6,0.8v1.7c-0.4-0.1-0.7-0.2-1-0.4c-0.5-0.3-0.9-0.7-1.3-1.2v3.5c0,1-0.4,1.5-1.1,1.5
			c-0.4,0-0.7-0.1-0.9-0.4c-0.1-0.3-0.2-0.7-0.2-1.2v-10c0-0.4,0.1-0.8,0.3-1c0.2-0.2,0.5-0.3,0.8-0.3c0.3,0,0.6,0.1,0.8,0.3
			c0.2,0.2,0.3,0.5,0.3,1v0.3c0.4-0.5,0.9-0.9,1.4-1.2c0.3-0.2,0.6-0.3,1-0.3V769.1z"/>
		<path class="st15" d="M466.8,768.6v6.7c0,0.5-0.1,0.8-0.3,1.1c-0.2,0.2-0.5,0.4-0.8,0.4c-0.3,0-0.6-0.1-0.8-0.4
			c-0.2-0.2-0.3-0.6-0.3-1v-6.6c0-0.5,0.1-0.8,0.3-1c0.2-0.2,0.5-0.4,0.8-0.4c0.3,0,0.6,0.1,0.8,0.4
			C466.7,767.9,466.8,768.2,466.8,768.6L466.8,768.6z M465.7,766.2c-0.3,0-0.6-0.1-0.8-0.3c-0.2-0.2-0.3-0.5-0.3-0.8
			c0-0.3,0.1-0.6,0.4-0.8c0.2-0.2,0.5-0.3,0.8-0.3c0.3,0,0.6,0.1,0.8,0.3c0.2,0.2,0.3,0.5,0.3,0.8c0,0.4-0.1,0.6-0.3,0.8
			C466.3,766.1,466,766.2,465.7,766.2z"/>
		<path class="st15" d="M475,775.7l-2.1-3.4l-1.3,1.2v1.8c0,0.4-0.1,0.8-0.3,1c-0.2,0.2-0.5,0.4-0.8,0.4c-0.4,0-0.6-0.1-0.8-0.4
			c-0.2-0.2-0.3-0.6-0.3-1.1v-9.9c0-0.5,0.1-0.9,0.3-1.2c0.2-0.3,0.5-0.4,0.9-0.4c0.4,0,0.6,0.1,0.8,0.4c0.2,0.2,0.3,0.6,0.3,1.1
			v5.6l2.6-2.7c0.3-0.3,0.6-0.6,0.7-0.7c0.2-0.1,0.4-0.2,0.6-0.2c0.3,0,0.5,0.1,0.7,0.3c0.2,0.2,0.3,0.4,0.3,0.7
			c0,0.3-0.3,0.8-0.9,1.4l-1.2,1.1l2.4,3.7c0.2,0.3,0.3,0.5,0.4,0.6c0.1,0.1,0.1,0.3,0.1,0.4c0,0.4-0.1,0.7-0.3,0.9
			c-0.2,0.2-0.5,0.3-0.8,0.3c-0.3,0-0.5-0.1-0.7-0.2C475.5,776.4,475.3,776.1,475,775.7z"/>
		<path class="st15" d="M480.8,776.8c-0.3,0-0.7-0.1-0.9-0.3c-0.3-0.2-0.4-0.5-0.4-1c0-0.3,0.1-0.6,0.4-0.9c0.2-0.2,0.5-0.4,0.9-0.4
			c0.4,0,0.7,0.1,0.9,0.4c0.3,0.2,0.4,0.5,0.4,0.9c0,0.4-0.1,0.7-0.4,1C481.4,776.7,481.1,776.8,480.8,776.8z"/>
		<path class="st15" d="M493,773.9c0,0.3-0.1,0.6-0.3,0.9c-0.2,0.3-0.4,0.6-0.8,0.9c-0.4,0.3-0.8,0.5-1.3,0.7
			c-0.5,0.2-1.2,0.3-1.8,0.3c-1.4,0-2.6-0.4-3.4-1.3c-0.8-0.8-1.2-2-1.2-3.4c0-1,0.2-1.8,0.6-2.5c0.4-0.7,0.9-1.3,1.6-1.7
			c0.7-0.4,1.5-0.6,2.5-0.6c0.6,0,1.2,0.1,1.7,0.3c0.5,0.2,0.9,0.4,1.3,0.7c0.3,0.3,0.6,0.6,0.8,0.9c0.2,0.3,0.3,0.6,0.3,0.9
			c0,0.3-0.1,0.5-0.3,0.7c-0.2,0.2-0.5,0.3-0.8,0.3c-0.2,0-0.4,0-0.5-0.1c-0.1-0.1-0.3-0.3-0.4-0.5c-0.3-0.4-0.6-0.8-0.9-1
			c-0.3-0.2-0.7-0.3-1.2-0.3c-0.7,0-1.2,0.3-1.7,0.8c-0.4,0.5-0.6,1.3-0.6,2.2c0,0.4,0.1,0.8,0.2,1.2c0.1,0.4,0.3,0.7,0.5,0.9
			c0.2,0.3,0.5,0.5,0.7,0.6c0.3,0.1,0.6,0.2,1,0.2c0.5,0,0.9-0.1,1.2-0.3c0.3-0.2,0.6-0.5,0.9-1c0.1-0.3,0.3-0.5,0.5-0.6
			c0.2-0.1,0.4-0.2,0.6-0.2c0.3,0,0.5,0.1,0.7,0.3C492.9,773.4,493,773.6,493,773.9z"/>
		<path class="st15" d="M501.4,772c0-0.9-0.2-1.7-0.6-2.2c-0.4-0.5-1-0.8-1.7-0.8v-1.7c0.7,0,1.3,0.1,1.9,0.3c0.6,0.2,1.1,0.5,1.5,1
			c0.4,0.4,0.7,0.9,0.9,1.5c0.2,0.6,0.3,1.2,0.3,1.9c0,0.7-0.1,1.3-0.3,1.9c-0.2,0.6-0.5,1.1-0.9,1.5c-0.4,0.4-0.9,0.7-1.5,1
			c-0.6,0.2-1.2,0.3-1.9,0.3V775c0.7,0,1.3-0.3,1.7-0.8C501.2,773.7,501.4,773,501.4,772z M499.1,769L499.1,769
			c-0.5,0-0.9,0.1-1.2,0.4c-0.3,0.2-0.6,0.6-0.8,1c-0.2,0.5-0.3,1-0.3,1.6c0,0.6,0.1,1.1,0.3,1.6c0.2,0.5,0.4,0.8,0.8,1
			c0.3,0.2,0.7,0.4,1.2,0.4h0v1.7h0c-0.7,0-1.3-0.1-1.9-0.3c-0.6-0.2-1-0.5-1.5-1c-0.4-0.4-0.7-0.9-0.9-1.5
			c-0.2-0.6-0.3-1.2-0.3-1.9c0-0.7,0.1-1.3,0.3-1.9c0.2-0.6,0.5-1.1,0.9-1.5c0.4-0.4,0.9-0.7,1.5-1c0.6-0.2,1.2-0.3,1.9-0.3h0V769z"
			/>
		<path class="st15" d="M513.3,772.2v3.1c0,0.5-0.1,0.9-0.3,1.1c-0.2,0.2-0.5,0.4-0.9,0.4c-0.3,0-0.6-0.1-0.9-0.4
			c-0.2-0.2-0.3-0.6-0.3-1.1v-3.7c0-0.6,0-1-0.1-1.4c0-0.3-0.1-0.6-0.3-0.8c-0.2-0.2-0.5-0.3-0.8-0.3c-0.8,0-1.3,0.3-1.5,0.8
			c-0.2,0.5-0.4,1.3-0.4,2.2v3.1c0,0.5-0.1,0.8-0.3,1.1c-0.2,0.2-0.5,0.4-0.9,0.4c-0.3,0-0.6-0.1-0.9-0.4c-0.2-0.2-0.3-0.6-0.3-1.1
			l0-6.6c0-0.4,0.1-0.8,0.3-1c0.2-0.2,0.5-0.3,0.8-0.3c0.3,0,0.6,0.1,0.8,0.3c0.2,0.2,0.3,0.5,0.3,0.9v0.2c0.4-0.5,0.8-0.8,1.3-1.1
			c0.5-0.2,1-0.3,1.5-0.3c0.6,0,1.1,0.1,1.5,0.3c0.4,0.2,0.8,0.6,1,1.1c0.4-0.5,0.8-0.8,1.3-1.1c0.4-0.2,0.9-0.3,1.5-0.3
			c0.6,0,1.2,0.1,1.6,0.4c0.5,0.3,0.8,0.6,1,1.1c0.2,0.4,0.3,1.1,0.3,2v4.5c0,0.5-0.1,0.9-0.3,1.1c-0.2,0.2-0.5,0.4-0.9,0.4
			c-0.3,0-0.6-0.1-0.9-0.4c-0.2-0.2-0.3-0.6-0.3-1.1v-3.9c0-0.5,0-0.9-0.1-1.2c0-0.3-0.2-0.6-0.3-0.8c-0.2-0.2-0.5-0.3-0.9-0.3
			c-0.3,0-0.6,0.1-0.9,0.3c-0.3,0.2-0.5,0.4-0.6,0.7C513.4,770.5,513.3,771.2,513.3,772.2z"/>
		<path class="st15" d="M401.7,761.3c0-0.2-0.1-0.3-0.1-0.4c0.8-0.1,1.3-1,0.9-1.7c-0.2-0.4-0.6-0.6-1-0.6h0c-0.4,0-0.7,0.2-0.9,0.5
			c-0.5,0.6-0.1,1.6,0.7,1.8c0,0.2,0.1,0.3,0.1,0.5c-1.2,0.1-2.4,0.3-3.3,1c0.1,0.3,0.2,0.6,0.3,0.9c2-0.9,4.2-0.7,6.3-0.5
			c0.1-0.3,0.1-0.6,0.2-0.8C403.7,761.5,402.7,761.3,401.7,761.3z"/>
		<path class="st15" d="M413.4,764.5c-0.3,0.2-0.4,0.5-0.4,0.9c-0.4,0.3-0.2,0.8-0.2,1.3c-0.1,0.2-0.4,0.3-0.6,0.4
			c-0.3-0.4-0.6-0.8-0.9-1.2l0,0c-0.4-0.4-0.8-0.7-1.3-1c-0.4,0.4-0.7,0.8-1.1,1.2c0.7,0.8,1.3,1.6,1.9,2.5c0.4,0.7,0.7,1.4,1,2.1
			c0.6-0.3,1.2-0.6,1.8-0.9c-0.3-0.7-0.7-1.4-1-2.1c0.3-0.1,0.6-0.3,0.7-0.6c0-0.4-0.1-0.8,0.2-1.1c0.5,0.3,1.1,0,1.2-0.6
			C414.6,764.6,413.9,764.2,413.4,764.5z"/>
		<path class="st15" d="M408.8,769.3c-0.1,1-1,1.8-2,1.7v3.8c1.8-0.5,3.5-1.2,5.1-2.1c0,0-0.3-1.9-1.7-3.9c-0.8-1.3-1.6-2.5-2.7-3.5
			c-0.2-0.2-0.5-0.4-0.7-0.6v2.2c0.2,0,0.5,0.1,0.7,0.1C408.4,767.3,409,768.4,408.8,769.3z M406.8,771L406.8,771
			c-0.6,0-1.1-0.2-1.5-0.6c-0.3-0.3-0.5-0.7-0.5-1.2c-0.1-1,0.6-2,1.5-2.2c0.2-0.1,0.4-0.1,0.5-0.1v-2.2c-1.2-0.8-2.6-1.3-4-1.3
			c-1.8,0-3.6,0.2-5.3,0.8v2.1c0.3,0,0.6,0,0.9,0.1c0.3,0.1,0.7,0.2,0.9,0.4c0.6,0.4,1.1,1.1,1.3,1.8c0.3,0.9,0.1,1.9-0.4,2.7
			c-0.4,0.6-0.9,1-1.6,1.2c-0.4,0.1-0.7,0.2-1.1,0.2v2.8l0.1,0c2.1,0.1,4.2,0.1,6.2-0.2c1-0.1,2-0.3,3-0.6V771z M397.5,764.1v2.1
			c-0.5,0-1.1,0.1-1.5,0.4c-1,0.5-1.7,1.6-1.7,2.7c-0.1,0.9,0.3,1.8,0.9,2.4c0.6,0.7,1.5,1,2.4,1v2.8c-2.1-0.1-4.1-0.6-6.1-1.1
			c-0.4-1.9-0.4-3.9,0.4-5.6c0.8-2,2.5-3.5,4.4-4.3C396.7,764.4,397.1,764.3,397.5,764.1z"/>
		<path class="st15" d="M391.8,766c-0.8,0.5-1.5,1.2-2.1,2c-0.2-0.3-0.2-0.7-0.4-1c-0.1-0.2-0.3-0.1-0.5-0.1c-0.2,0-0.4,0-0.6-0.1
			c0.2-0.3,0.2-0.9-0.2-1.1c-0.4-0.3-1,0-1.1,0.4c-0.2,0.5,0.4,1,0.9,0.9c0.3,0.4,0.8,0.3,1.2,0.3c0.2,0.3,0.3,0.7,0.6,1
			c-0.4,0.9-0.7,1.9-0.7,2.8c0.6,0.2,1.1,0.5,1.7,0.7c0-0.6,0.1-1.2,0.2-1.8c0.2-1.3,1-2.5,1.9-3.4
			C392.3,766.4,392.1,766.2,391.8,766z"/>
		<path class="st15" d="M405.2,776c-2.1,0.5-4.3,0.6-6.4,0.5c-1.5-0.1-2.9-0.2-4.3-0.5c-1-0.2-2-0.5-3-0.8c0.2,1.3,0.7,2.5,1.4,3.5
			c0.9,1.2,2,2.3,3.5,2.8c1,0.3,2.3,0.6,4.3,0.6h0.2l0.2,0c1.9,0,3.8-0.3,5.4-1c1.1-0.5,2.1-1.1,3-1.9c0.7-0.7,1.3-1.6,1.7-2.5
			c0.4-0.9,0.7-2.5,0.7-3.3C409.8,774.6,407.5,775.6,405.2,776z"/>
	</g>
</g>
<g id="Layer_2" class="st0">
	<polygon class="st12" points="331.8,271.1 327.2,271.1 327.2,258.5 321.6,236.8 326.1,236.8 329.6,251.7 329.7,251.7 332.8,236.8 
		337.4,236.8 331.8,258.5 	"/>
	<path class="st12" d="M347,236.8h2.2c3.7,0,5.5,2,5.5,5.9v22.6c0,3.9-1.9,5.8-5.6,5.8H347V267h1.3c1.2,0,1.8-0.7,1.8-2v-22
		c0-1.3-0.7-2-2.1-2H347V236.8z M344.9,271.1c-3.7,0-5.6-1.9-5.6-5.8v-22.6c0-3.9,1.8-5.9,5.5-5.9h2.2v4.2h-1.1c-1.3,0-2,0.7-2,2v22
		c0,1.3,0.7,2,2.1,2h1.1v4.2H344.9z"/>
	<path class="st12" d="M373.7,236.8v27.9c0,4.3-1.9,6.5-5.6,6.5h-3.9c-3.7,0-5.5-2.2-5.5-6.6v-27.8h4.6v28c0,1.5,0.7,2.3,2,2.3h1.9
		c1.2,0,1.9-0.8,1.9-2.3v-28H373.7z"/>
	<path class="st12" d="M385.2,236.8h1.9c3.5,0,5.3,2,5.3,5.9v8.5c0,3-0.9,4.9-2.7,5.7l3.2,14.3h-4.4l-3-13.9h-0.2v-3.9h0.5
		c1.4,0,2.1-0.8,2.1-2.5v-7.4c0-1.7-0.7-2.5-2.1-2.5h-0.5V236.8z M378,236.8h7.1v4.2h-2.5v12.4h2.5v3.9h-2.5v13.9H378V236.8z"/>
	<path class="st12" d="M412.6,246v-3c0-1.4-0.7-2.1-2-2.1h-0.7c-1.3,0-2,0.7-2,2.1v5.7c0,0.6,0.1,1.1,0.4,1.3
		c0.3,0.2,0.7,0.5,1.2,0.9l4.4,2.3c1,0.5,1.6,1,2,1.3c0.4,0.3,0.7,0.7,0.9,1.1c0.2,0.4,0.3,1.3,0.3,2.5v7.3c0,3.9-1.9,5.8-5.6,5.8
		h-2.8c-3.7,0-5.5-2.1-5.5-6.3v-1.7h4.6v1.9c0,1.3,0.7,2,2.1,2h0.8c1.2,0,1.8-0.7,1.8-2v-5.8c0-0.6-0.1-1.1-0.4-1.3
		c-0.3-0.2-0.7-0.5-1.2-0.9l-4.4-2.4c-1-0.5-1.7-0.9-2.1-1.3c-0.4-0.4-0.7-0.8-0.9-1.4c-0.2-0.6-0.3-1.3-0.3-2.2v-7
		c0-3.9,1.8-5.9,5.5-5.9h2.9c3.7,0,5.5,2,5.5,5.9v3.4H412.6z"/>
	<path class="st12" d="M428,236.8h1.7c3.7,0,5.5,2,5.5,5.9v28.5h-4.6v-12.6H428v-4.2h2.6v-11.4c0-1.3-0.7-2-2-2H428V236.8z
		 M425.4,271.1h-4.6v-28.5c0-3.9,1.8-5.9,5.5-5.9h1.7v4.2h-0.6c-1.3,0-2,0.7-2,2v11.4h2.6v4.2h-2.6V271.1z"/>
	<polygon class="st12" points="448.7,257 452.9,236.8 458,236.8 458,271.1 453.4,271.1 453.9,248.6 450.4,264.9 446.9,264.9 
		443.4,248.6 443.9,271.1 439.3,271.1 439.3,236.8 444.4,236.8 	"/>
	<path class="st12" d="M469.3,236.8h1.4c3.7,0,5.6,2,5.6,5.9v10.2c0,3.9-1.8,5.8-5.5,5.8h-1.5v-4.2h0.6c1.2,0,1.8-0.7,1.8-2v-9.6
		c0-1.3-0.7-2-2.1-2h-0.3V236.8z M462.3,236.8h7v4.2h-2.4v13.6h2.4v4.2h-2.4v12.4h-4.6V236.8z"/>
	<polygon class="st12" points="490.8,271.1 479.9,271.1 479.9,236.8 484.5,236.8 484.5,267 490.8,267 	"/>
	<polygon class="st12" points="493.4,271.1 493.4,236.8 504.8,236.8 504.8,240.9 498,240.9 498,251.4 504,251.4 504,255.5 
		498,255.5 498,267 504.8,267 504.8,271.1 	"/>
	<polygon class="st13" points="334.3,291 334.3,332.9 327.9,332.9 327.9,291 321.8,291 321.8,285.2 340.4,285.2 340.4,291 	"/>
	<polygon class="st13" points="344,332.9 344,285.2 359.8,285.2 359.8,291 350.4,291 350.4,305.5 358.8,305.5 358.8,311.3 
		350.4,311.3 350.4,327.1 359.8,327.1 359.8,332.9 	"/>
	<polygon class="st13" points="382.4,332.9 376.3,332.9 372.7,314.8 372.6,314.8 368.2,332.9 362.3,332.9 368.4,308.8 362.7,285.2 
		369,285.2 372.6,302.8 372.7,302.8 376.7,285.2 382.6,285.2 376.9,308.8 	"/>
	<polygon class="st13" points="396.6,291 396.6,332.9 390.3,332.9 390.3,291 384.2,291 384.2,285.2 402.7,285.2 402.7,291 	"/>
	<polygon class="st13" points="431.2,332.9 431.2,311.3 423.4,311.3 423.4,332.9 417,332.9 417,285.2 423.4,285.2 423.4,305.5 
		431.2,305.5 431.2,285.2 437.6,285.2 437.6,332.9 	"/>
	<polygon class="st13" points="443.5,332.9 443.5,285.2 459.3,285.2 459.3,291 449.9,291 449.9,305.5 458.3,305.5 458.3,311.3 
		449.9,311.3 449.9,327.1 459.3,327.1 459.3,332.9 	"/>
	<path class="st13" d="M473.8,285.2h2.6c4.9,0,7.3,2.7,7.3,8.2v11.7c0,4.2-1.3,6.8-3.8,7.9l4.4,19.8h-6l-4.2-19.2h-0.3v-5.4h0.7
		c1.9,0,2.9-1.1,2.9-3.4v-10.3c0-2.3-1-3.4-2.9-3.4h-0.7V285.2z M463.9,285.2h9.9v5.8h-3.5v17.2h3.5v5.4h-3.5v19.2h-6.4V285.2z"/>
	<polygon class="st13" points="489,332.9 489,285.2 504.8,285.2 504.8,291 495.4,291 495.4,305.5 503.7,305.5 503.7,311.3 
		495.4,311.3 495.4,327.1 504.8,327.1 504.8,332.9 	"/>
</g>
<g id="Layer_3">
	<g>
		<path class="st16" d="M410,143.1c-78.2,0-141.7,63.4-141.7,141.7c0,67.5,47.2,124,110.4,138.2c8.1,1.8,7.5,7.8,8.5,16.2L410,642.8
			l22.5-200.6c0.9-8.2,0.6-17.3,8.3-19c63.5-14,110.9-70.6,110.9-138.3C551.6,206.6,488.2,143.1,410,143.1z"/>
		<path class="st4" d="M410,408.3c68.6,0,124.5-55.9,124.5-124.5c0-68.6-55.9-124.5-124.5-124.5c-68.6,0-124.5,55.9-124.5,124.5
			C285.4,352.4,341.4,408.3,410,408.3z"/>
	</g>
	<polygon class="st17" points="336.2,274 328.7,274 328.7,253.5 319.6,218.1 327,218.1 332.6,242.4 332.8,242.4 337.8,218.1 
		345.2,218.1 336.2,253.5 	"/>
	<path class="st17" d="M360.9,218.1h3.6c6,0,8.9,3.2,8.9,9.6v36.8c0,6.3-3,9.5-9,9.5h-3.5v-6.8h2.1c2,0,3-1.1,3-3.3v-35.8
		c0-2.2-1.1-3.3-3.3-3.3h-1.7V218.1z M357.4,274c-6,0-9-3.2-9-9.5v-36.8c0-6.4,3-9.6,8.9-9.6h3.6v6.8h-1.8c-2.2,0-3.3,1.1-3.3,3.3
		V264c0,2.2,1.1,3.3,3.3,3.3h1.7v6.8H357.4z"/>
	<path class="st17" d="M404.3,218.1v45.3c0,7.1-3,10.6-9,10.6H389c-6,0-8.9-3.6-8.9-10.7v-45.2h7.5v45.4c0,2.4,1.1,3.7,3.3,3.7h3
		c2,0,3-1.2,3-3.7v-45.4H404.3z"/>
	<path class="st17" d="M433.1,216.5h2.8c6,0,8.9,3.2,8.9,9.6v46.3h-7.5v-20.5h-4.3v-6.8h4.3v-18.6c0-2.2-1.1-3.3-3.3-3.3h-1V216.5z
		 M428.8,272.4h-7.5v-46.3c0-6.4,3-9.6,8.9-9.6h2.8v6.8h-1c-2.2,0-3.3,1.1-3.3,3.3v18.6h4.3v6.8h-4.3V272.4z"/>
	<path class="st17" d="M462,216.5h3c5.7,0,8.6,3.2,8.6,9.6v13.8c0,4.9-1.5,8-4.4,9.3l5.2,23.3h-7.1l-4.9-22.6H462v-6.4h0.8
		c2.2,0,3.3-1.3,3.3-4v-12.1c0-2.7-1.1-4-3.3-4H462V216.5z M450.5,216.5H462v6.8h-4.1v20.1h4.1v6.4h-4.1v22.6h-7.5V216.5z"/>
	<polygon class="st17" points="478.8,272.4 478.8,216.5 497.4,216.5 497.4,223.3 486.3,223.3 486.3,240.2 496.1,240.2 496.1,247 
		486.3,247 486.3,265.6 497.4,265.6 497.4,272.4 	"/>
	<polygon class="st18" points="365.2,364.3 365.2,329.2 352.5,329.2 352.5,364.3 342.1,364.3 342.1,286.9 352.5,286.9 352.5,319.8 
		365.2,319.8 365.2,286.9 375.6,286.9 375.6,364.3 	"/>
	<polygon class="st18" points="385.3,364.3 385.3,286.9 410.9,286.9 410.9,296.3 395.6,296.3 395.6,319.8 409.2,319.8 409.2,329.2 
		395.6,329.2 395.6,355 410.9,355 410.9,364.3 	"/>
	<path class="st18" d="M434.4,286.9h4.2c7.9,0,11.9,4.4,11.9,13.3v19.1c0,6.8-2,11-6.1,12.8l7.2,32.2h-9.8l-6.8-31.3h-0.5v-8.8h1.1
		c3.1,0,4.6-1.9,4.6-5.6v-16.7c0-3.7-1.5-5.6-4.6-5.6h-1.1V286.9z M418.4,286.9h16.1v9.4h-5.7v27.9h5.7v8.8h-5.7v31.3h-10.3V286.9z"
		/>
	<polygon class="st18" points="459.1,364.3 459.1,286.9 484.8,286.9 484.8,296.3 469.5,296.3 469.5,319.8 483,319.8 483,329.2 
		469.5,329.2 469.5,355 484.8,355 484.8,364.3 	"/>
</g>
</svg>
